<svg xmlns="http://www.w3.org/2000/svg" viewBox="0 0 30 30">
    <path style="line-height:normal;text-indent:0;text-align:start;text-decoration-line:none;text-decoration-style:solid;text-decoration-color:#000;text-transform:none;block-progression:tb;isolation:auto;mix-blend-mode:normal" d="M 15 2 C 10.041282 2 6 6.0412819 6 11 C 6 15.620359 9.5098524 19.441076 14 19.941406 L 14 24 L 12 24 L 12 26 L 14 26 L 14 28 L 16 28 L 16 26 L 18 26 L 18 24 L 16 24 L 16 19.941406 C 20.490148 19.441076 24 15.620359 24 11 C 24 6.0412819 19.958718 2 15 2 z M 15 4 C 18.877838 4 22 7.1221621 22 11 C 22 14.877838 18.877838 18 15 18 C 11.122162 18 8 14.877838 8 11 C 8 7.1221621 11.122162 4 15 4 z" font-weight="400" font-family="sans-serif" white-space="normal" overflow="visible"></path>
</svg>